<svg id="OBJECTS" xmlns="http://www.w3.org/2000/svg" viewBox="0 0 593.18 297.28"><defs><style>.cls-1{fill:#d3e3f2;}.cls-2{fill:#ebf6ff;}.cls-3{fill:#268e8b;}.cls-4{fill:#0caeba;}.cls-5{fill:#0a9ca0;}.cls-6{fill:#8fbc75;}.cls-7{fill:#79a55d;}.cls-8{fill:#3f196b;}.cls-9{fill:#562699;}.cls-10{fill:#efc929;}.cls-11{fill:#e5b52e;}.cls-12{fill:#b23d6a;}.cls-13{fill:#d34f81;}.cls-14{fill:#ea639a;}.cls-15{fill:#ffc98f;}.cls-16{fill:#eda769;}.cls-17{fill:#33155e;}.cls-18{fill:#4b1e77;}.cls-19{fill:#f97a53;}.cls-20{fill:#e55d3e;}.cls-21{fill:#faffff;}.cls-22{fill:#d3e9ef;}.cls-23{fill:#378bbf;}.cls-24{fill:#59a8e2;}.cls-25{fill:#3693c1;}.cls-26{fill:#71b5ff;}</style></defs><title>teman_cerita</title><polygon class="cls-1" points="510.91 147.44 510.91 125.14 427.6 125.14 427.6 74.42 370.97 74.42 370.97 121.2 349.89 121.2 349.89 93.76 286.43 93.76 286.43 137.1 156.51 137.1 156.51 106.98 71.14 106.98 71.14 145.01 36.89 145.01 36.89 242.65 104.82 242.65 104.82 239.68 133.58 239.68 133.58 248.69 302.67 248.69 302.67 218.83 349.89 218.83 349.89 191.55 370.97 191.55 370.97 210.72 424.55 210.72 424.55 226.4 498.26 226.4 498.26 272.94 556.29 272.94 556.29 147.44 510.91 147.44"/><path class="cls-2" d="M380.25,207.37h7.43v7.43h-7.43Zm24.69,0v7.43h7.44v-7.43Zm-24.69,29.72h7.43v-7.44h-7.43Zm24.69,0h7.44v-7.44h-7.44Zm-24.69,22.28h7.43v-7.43h-7.43Zm24.69,0h7.44v-7.43h-7.44Z" transform="translate(-78.41 -101.36)"/><path class="cls-2" d="M461.72,186.48h7.43v7.43h-7.43Zm24.69,0v7.43h7.43v-7.43ZM461.72,216.2h7.43v-7.44h-7.43Zm24.69,0h7.43v-7.44h-7.43Zm-24.69,22.28h7.43v-7.43h-7.43Zm24.69,0h7.43v-7.43h-7.43Z" transform="translate(-78.41 -101.36)"/><path class="cls-2" d="M545.31,238.48h7.44v7.43h-7.44Zm24.69,0v7.43h7.44v-7.43ZM545.31,268.2h7.44v-7.43h-7.44Zm24.69,0h7.44v-7.43H570Zm-24.69,22.28h7.44v-7.43h-7.44Zm24.69,0h7.44v-7.43H570Z" transform="translate(-78.41 -101.36)"/><path class="cls-2" d="M593.42,264.48h7.43v7.44h-7.43Zm24.69,0v7.44h7.43v-7.44ZM593.42,294.2h7.43v-7.43h-7.43Zm24.69,0h7.43v-7.43h-7.43Zm-24.69,22.29h7.43v-7.44h-7.43Zm24.69,0h7.43v-7.44h-7.43Z" transform="translate(-78.41 -101.36)"/><path class="cls-2" d="M321.64,257.05h7.43v7.43h-7.43Zm24.69,0v7.43h7.43v-7.43Zm-24.69,29.72h7.43v-7.44h-7.43Zm24.69,0h7.43v-7.44h-7.43Zm-24.69,22.28h7.43v-7.43h-7.43Zm24.69,0h7.43v-7.43h-7.43Z" transform="translate(-78.41 -101.36)"/><path class="cls-2" d="M123.82,255.46h7.44v7.43h-7.44Zm24.69,0v7.43H156v-7.43Zm-24.69,29.72h7.44v-7.43h-7.44Zm24.69,0H156v-7.43h-7.44Zm-24.69,22.28h7.44V300h-7.44Zm24.69,0H156V300h-7.44Z" transform="translate(-78.41 -101.36)"/><path class="cls-3" d="M485.17,253.07A23.06,23.06,0,0,0,473,256.56a28.09,28.09,0,0,0-50.39,10.35,25,25,0,0,0-2.6-.14,24.53,24.53,0,0,0-22.37,14.47,13.79,13.79,0,0,0-20.31,12.17,14.44,14.44,0,0,0,.12,1.76h-.12a29.22,29.22,0,0,0-9,1.43A36.72,36.72,0,1,0,359,346.83a29,29,0,0,0,43.65-8.45,37.12,37.12,0,0,0,20.14,7.46,30.3,30.3,0,1,0,39.59-38.6,36.93,36.93,0,0,0-1.34-8.59,28,28,0,0,0,8.38-5.53,23.12,23.12,0,1,0,15.74-40.05Z" transform="translate(-78.41 -101.36)"/><rect class="cls-4" y="234.27" width="593.18" height="63.01" rx="31.51"/><rect class="cls-5" x="72.2" y="254.82" width="227.12" height="18.12" rx="9.06"/><rect class="cls-5" x="349.07" y="254.82" width="176.05" height="18.12" rx="9.06"/><path class="cls-6" d="M167.57,356.18s-71.4-35.89-31.77-97.53C135.8,258.65,208,293.75,167.57,356.18Z" transform="translate(-78.41 -101.36)"/><path class="cls-7" d="M135.8,258.65c-39.63,61.64,31.77,97.53,31.77,97.53l1-1.6Z" transform="translate(-78.41 -101.36)"/><path class="cls-6" d="M170.34,356s-60.8,21.78-74.79-35.77C95.55,320.19,156.34,297.48,170.34,356Z" transform="translate(-78.41 -101.36)"/><path class="cls-7" d="M95.55,320.19c14,57.55,74.79,35.77,74.79,35.77-.12-.5-.25-1-.38-1.47Z" transform="translate(-78.41 -101.36)"/><path class="cls-6" d="M560.21,356.29S519.38,287.59,586,257C586,257,627.91,325.46,560.21,356.29Z" transform="translate(-78.41 -101.36)"/><path class="cls-7" d="M586,257c-66.59,30.58-25.76,99.28-25.76,99.28l1.7-.81Z" transform="translate(-78.41 -101.36)"/><path class="cls-6" d="M569.82,357.48s-1-64.59,58-59.25C627.8,298.23,629.68,363.09,569.82,357.48Z" transform="translate(-78.41 -101.36)"/><path class="cls-7" d="M627.8,298.23c-59-5.34-58,59.25-58,59.25.51,0,1,.08,1.51.11Z" transform="translate(-78.41 -101.36)"/><path class="cls-8" d="M318.08,363H172.32a8,8,0,0,1-8-8V109.32a7.94,7.94,0,0,1,8-8H318.08a7.94,7.94,0,0,1,8,8V355a8,8,0,0,1-4.86,7.33A7.81,7.81,0,0,1,318.08,363Z" transform="translate(-78.41 -101.36)"/><circle class="cls-9" cx="169.41" cy="248.69" r="6.13"/><rect class="cls-10" x="93.95" y="13.71" width="145.69" height="222.86"/><rect class="cls-11" x="93.95" y="13.71" width="41.89" height="222.86"/><path class="cls-12" d="M301.33,289.22v48.71h-103l-.41-31.22-17.43-60.22a15.07,15.07,0,0,1,1.89-12.44l11.77-17.84Z" transform="translate(-78.41 -101.36)"/><polygon class="cls-13" points="139.28 191.66 139.28 236.57 222.92 236.57 222.71 192.26 143.01 184.86 139.28 191.66"/><rect class="cls-12" x="139.28" y="192.26" width="83.46" height="7.46"/><path class="cls-13" d="M214.56,287.54l-.18,1.26L192.9,224.31a9,9,0,0,1,8.51-11.83h51.43a9,9,0,0,1,8.17,5.26l30.51,67.18Z" transform="translate(-78.41 -101.36)"/><path class="cls-12" d="M220.33,212.48h-7.65s2,12.21,10.75,16.93c0,0,2.36,4.85,0,12s-12.6,23.86-3.11,40H245.2l-2.43-63.39Z" transform="translate(-78.41 -101.36)"/><path class="cls-14" d="M301.12,293.62h-80.8a6.07,6.07,0,0,1-6.07-6.08h0a6.07,6.07,0,0,1,6.07-6.08h80.8a6.07,6.07,0,0,1,5.48,3.45,6,6,0,0,1,.6,2.63h0a6.06,6.06,0,0,1-6.08,6.08Z" transform="translate(-78.41 -101.36)"/><path class="cls-13" d="M335.73,350.45l6,10.84a2.19,2.19,0,0,1-.48,2.53c-1.48,1.53-4.32,0-5.55-1.12S316,348.77,315.92,346.39s5.38-10.76,5.38-10.76l6.22,1.76Z" transform="translate(-78.41 -101.36)"/><path class="cls-12" d="M341,364.08c-5.75-5.51-13-12.56-14.4-14-2.31-2.49,0-9,0-9l.95-3.64h0l-6.22-1.76s-5.46,8.38-5.38,10.76,18.57,15.17,19.81,16.31S339.43,365.15,341,364.08Z" transform="translate(-78.41 -101.36)"/><polygon class="cls-15" points="254 217.16 253.3 235.95 257.32 249.09 242.89 234.27 240.91 217.16 254 217.16"/><polygon class="cls-16" points="246.27 217.16 240.91 217.16 242.89 234.27 248.16 239.68 246.27 217.16"/><path class="cls-17" d="M236.55,254.28l2.06,21.91s-1.86,5.62,6.59,6.12,69.15-.85,69.15-.85l-4.51,43,25.89-2.23-2.49-37.29-23-30.65Z" transform="translate(-78.41 -101.36)"/><path class="cls-13" d="M366.6,304.58,377,313a2,2,0,0,1,.4,2.71c-.45.58-1.29,1-2.87.61C370.72,315.42,347,308.47,346,306c-1.41-3.86,2.18-7.68,2.18-7.68l3.94-6Z" transform="translate(-78.41 -101.36)"/><path class="cls-12" d="M377.28,315.77c-6.2-2.51-17.31-7.1-18.91-8.39-2.23-1.82-3.64-5.88-3.64-5.88s.7-2.34,1.65-5.6l-4.23-3.6-3.94,6S344.62,302.1,346,306c.92,2.51,24.69,9.46,28.46,10.33C376,316.64,376.81,316.3,377.28,315.77Z" transform="translate(-78.41 -101.36)"/><path class="cls-15" d="M348.21,281.46s6.26,8.35,9.42,12.29,9,10.83,9,10.83l-18.39-6.3-10.51-9.72Z" transform="translate(-78.41 -101.36)"/><path class="cls-16" d="M343.09,284.92l-5.39,3.64,10.51,9.72,7.64,2.62C351.6,295.55,346.66,289.35,343.09,284.92Z" transform="translate(-78.41 -101.36)"/><path class="cls-18" d="M228.31,268.79l.77,7.4s5.46,9.09,18.47,5.24,59.36-19.79,59.36-19.79l30.17,39.44,17.65-17.45-40.12-39.4s-4.58-4-8.8-2.81-21.43,8.15-21.43,8.15l-23.82-9.73-27.12,18Z" transform="translate(-78.41 -101.36)"/><path class="cls-8" d="M337.08,301.08l7.23-7.15-34.47-38.4s-34.62,10.14-44,11.67-15.48-4.3-9.22-12.92,21.95-4.71,21.95-4.71-11.11-4.28-20.51-8.07l-24.6,16.29-5.13,11,.77,7.4s5.46,9.09,18.47,5.24,59.36-19.79,59.36-19.79Z" transform="translate(-78.41 -101.36)"/><path class="cls-18" d="M264,175.57a28.46,28.46,0,0,1-4.2-4.48l4.16-4.8s10.36-7.51,3.92-17a14.24,14.24,0,0,0-2.38-9c-2.95-4.2-7.64-6-13.08-4.92,0,0-10.64-6.45-19,8.39-6.13,10.92-.53,17.51-4.15,22.61s-6.94,9-6.27,16.35,1,8-1.46,13.4-4.08,12.33.83,21.11c7.57,13.52,26.86,8.46,26.86,8.46l-1-14.45c8.8-6,21.93-7.95,21.93-7.95s2.65-10.81-1.09-14.26S268.75,179.36,264,175.57Z" transform="translate(-78.41 -101.36)"/><path class="cls-8" d="M252.35,197.17s8.73-5.37,10.33-8.77.12-7.62-3.86-11.24,0-8.95,0-8.95l-6.53,3.39s-7.74,17.16-11.74,12.81,2.67-9.44-.47-11.49-5.9,2.58-7.91-.09c-1.89-2.51,2.46-6.77-.18-16.34a16.39,16.39,0,0,1-.11-9.47c-3.45,9,.67,14.72-2.57,19.27-3.62,5.1-6.94,9-6.27,16.35s1,8-1.46,13.4-4.08,12.33.83,21.11c7.57,13.52,26.86,8.46,26.86,8.46l-1-14.45a34.11,34.11,0,0,1,3.62-2.14Z" transform="translate(-78.41 -101.36)"/><path class="cls-19" d="M246.51,182.64l-4.59,17,10.86,39.61,5.11,10.28,13.38-2s-7-56.27-7.16-55.93-6.54-7.44-6.54-7.44Z" transform="translate(-78.41 -101.36)"/><path class="cls-20" d="M255.86,245.5l2,4.07,13.38-2s-7-56.27-7.16-55.93-2.71-2.86-4.61-5.12V189s4.82,15.25,5.45,24.62c.87,12.93-4.39,26.27-4.39,26.27Z" transform="translate(-78.41 -101.36)"/><path class="cls-15" d="M260.81,149c-2.22.15-4.42,0-6-2-1.29-1.67-5.47-1.66-5.47-1.66,1.07,2.88-.87,5.27-2.12,6.44-.28,1.91.5,4,.5,5.45,0,1.84-1.22,3.24-.66,4.82,0,0-1.7-1.47-1.48-2.91a9,9,0,0,0,.2-3c-1.68-1.89-4.82-.5-4.64,2.32.21,3.12,4.17,5.48,4.17,5.48a46.76,46.76,0,0,1-1.6,18.75L241.18,184s7.36,3.33,10.77,3.26,5.62-3,5.62-3l-1.94-1v-7s6.52-.4,8.33-5c1.41-3.59,1.77-11.68,1.86-16.83C263.07,154.18,264.56,148.7,260.81,149Z" transform="translate(-78.41 -101.36)"/><path class="cls-15" d="M280.74,242.84l7.47,2.94s8-7.11,10.07-7.11,10.27-.94,11.57,1.15-.87,7.69-3.09,9.13-6.26.5-8.7,1.79-8.55,3.74-9.92,3.53S278.08,251,278.08,251Z" transform="translate(-78.41 -101.36)"/><path class="cls-16" d="M306.76,249a6.83,6.83,0,0,0,2-2.34,25.06,25.06,0,0,1-8.72,0c-1.92-.38-9.37,3.76-10.49,4.1s-9.11-2.49-9.11-2.49l-1.15-.83L278.08,251s8.69,3,10.06,3.24,7.48-2.23,9.92-3.53S304.53,250.38,306.76,249Z" transform="translate(-78.41 -101.36)"/><path class="cls-15" d="M309.84,194.18l6-7.87s4.17-4.27,7.11-5.79,5.39-2.76,6.15-1.52-.93,3-3,4.46a21.31,21.31,0,0,0,6.74-2.08c2.46-1.52,4.08-4.18,5.88-2.75s4.36,9.47-6.81,13.93c-3.27,1.31-10.93.48-10.93.48L316,199.68Z" transform="translate(-78.41 -101.36)"/><path class="cls-16" d="M340.16,181.76c-1.5,2.42-4.8,6.94-9,8a18.8,18.8,0,0,1-10.33-.23l-5.45,6.86.32,3,.29.26,4.93-6.64s7.66.83,10.93-.48C339.4,189.55,340.68,184.9,340.16,181.76Z" transform="translate(-78.41 -101.36)"/><path class="cls-21" d="M308.77,191.2l-16.2,22.6-26.73-25.43a18,18,0,0,0-10.21-5.1,53.46,53.46,0,0,1,11.13,27.89,158.23,158.23,0,0,1,.47,24.86l-9.62-3.93c-.86-17.22-3.87-42-13.86-49.45L241.18,184s-8.34,4.79-9.83,9.12c-1.41,4.11-1,13.89,1.75,20.49h0a49.86,49.86,0,0,1,2.34,18c-.75,9.16-9.54,20.76-9.73,29a37.86,37.86,0,0,0,3.37,15.53s11.6-22.55,28.81-26.62c0,0,0-1.28,0-3.49,9.34,3.32,20.61,7.14,20.61,7.14l4.09-10.9-9.95-4.07a70.47,70.47,0,0,1-.83-11.26,83.05,83.05,0,0,0-.38-12.26l15.45,11.5s6.4,5.47,11.86-.37,20.54-26.38,20.54-26.38Z" transform="translate(-78.41 -101.36)"/><path class="cls-22" d="M280.4,248.25l-29.46-9.79s-14.61-37.06-17.1-41.18a9.89,9.89,0,0,1-.9-6.73,8.68,8.68,0,0,0-1.59,2.6c-1.41,4.11-1,13.89,1.75,20.49h0a49.86,49.86,0,0,1,2.34,18c-.75,9.16-9.54,20.76-9.73,29a37.86,37.86,0,0,0,3.37,15.53,74.35,74.35,0,0,1,12.2-16.48h0c-3.53-11.62-1.09-31.09-1.09-31.09s3.08,12.18,5,12.8c2.77.89,12.73,4.66,12.73,4.66,9.34,3.32,20.61,7.14,20.61,7.14Z" transform="translate(-78.41 -101.36)"/><path class="cls-22" d="M315.39,196.4c-6.32,9.27-18.49,26.27-22.55,26.27-5.58,0-21.68-16.74-21.68-16.74l.31,8.8,15.45,11.5s6.4,5.47,11.86-.37,20.54-26.38,20.54-26.38Z" transform="translate(-78.41 -101.36)"/><path class="cls-16" d="M255.63,183.27v-7a13.48,13.48,0,0,0,5-1.46c-3,.56-7,1-9.62-4.1-1.68-3.29-2.39-13.36-2.69-20.13a10.57,10.57,0,0,1-1.07,1.17c-.28,1.91.5,4,.5,5.45,0,1.84-1.22,3.24-.66,4.82,0,0-1.7-1.47-1.48-2.91a9,9,0,0,0,.2-3c-1.68-1.89-4.82-.5-4.64,2.32.21,3.12,4.17,5.48,4.17,5.48a46.76,46.76,0,0,1-1.6,18.75L241.18,184s7.36,3.33,10.77,3.26,5.62-3,5.62-3Z" transform="translate(-78.41 -101.36)"/><polygon class="cls-23" points="496.74 191.66 496.74 261.64 415.68 261.64 415.88 192.26 493.02 184.86 496.74 191.66"/><path class="cls-24" d="M494.29,293.62h78.23a6.06,6.06,0,0,0,5.14-2.84,6,6,0,0,0,.94-3.24h0a6.09,6.09,0,0,0-6.08-6.08H494.29a6.08,6.08,0,0,0-6.08,6.08h0a6.06,6.06,0,0,0,6.08,6.08Z" transform="translate(-78.41 -101.36)"/><polygon class="cls-24" points="482.97 191.66 482.97 261.64 401.9 261.64 402.11 192.26 479.24 184.86 482.97 191.66"/><rect class="cls-25" x="394.13" y="192.26" width="88.84" height="7.46"/><path class="cls-26" d="M480.52,293.62h78.22a6.07,6.07,0,0,0,6.08-6.08h0a6.07,6.07,0,0,0-6.08-6.08H480.52a6.06,6.06,0,0,0-6.08,6.08h0a6.06,6.06,0,0,0,6.08,6.08Z" transform="translate(-78.41 -101.36)"/><path class="cls-18" d="M508.67,169.62s-7.45-4.13-4.8-13.72c0,0-3.28-8.61.92-14,6.88-8.86,18.86-7.67,24.81-3.9a16,16,0,0,1,6.54,7.84s4.41,2.23,4.88,11.71c.55,11.22-10.92,18.33-6.64,24.75,0,0-4.59,3.37-9.69-3.87Z" transform="translate(-78.41 -101.36)"/><path class="cls-8" d="M524.69,178.4c5.1,7.24,9.69,3.87,9.69,3.87-2.69-4.05.86-8.36,3.72-13.81,0,0-3.51,4.11-5.61,1.59s2.43-8.88,0-13.79-1.21-7.76-1.21-7.76-16.64-1.59-17.59-8.24a7.92,7.92,0,0,1,.6-4.56,17,17,0,0,0-9.5,6.17c-4.2,5.42-.92,14-.92,14-2.65,9.59,4.8,13.72,4.8,13.72Z" transform="translate(-78.41 -101.36)"/><path class="cls-19" d="M458.81,346,441.7,356.26s-2.66.86-2.54,3.34,4.24,3,13.34,2.49,20-4.48,20-4.48l-3.63-7.53L464.52,344,458,346" transform="translate(-78.41 -101.36)"/><path class="cls-20" d="M465.38,348.63l-2-4.28L458,346h.85L441.7,356.26s-2.66.86-2.54,3.34c.07,1.47,1.55,2.24,4.63,2.52Z" transform="translate(-78.41 -101.36)"/><polygon class="cls-15" points="379.56 230.46 380.4 244.59 390.5 248.72 392.66 227.97 379.56 230.46"/><polygon class="cls-16" points="388.47 228.76 379.56 230.46 380.4 244.59 386.97 247.28 388.47 228.76"/><polygon class="cls-15" points="391.65 231.42 392.76 250.71 383.26 256.09 402.71 253.34 405 230.46 391.65 231.42"/><polygon class="cls-16" points="399.31 253.82 400.29 230.8 391.65 231.42 392.76 250.71 383.26 256.09 399.31 253.82"/><path class="cls-17" d="M528.16,248.06l-8.44,10.29-56.12,12s-10.66,3.37-12,12,.93,52.21.93,52.21l21.34-.38,14.78-53.89L548,271.45l-3-23.39Z" transform="translate(-78.41 -101.36)"/><path class="cls-18" d="M501.9,270l-26.15,5.66s-10.4,3.8-10.07,17.32c.42,17.15,0,43.7,0,43.7l21.24-.49.29-41.37,58.05-7.19s13.68-.32,12.29-19.35c-.09-1.28-12.25-26.47-12.25-26.47l-26.47,28.14Z" transform="translate(-78.41 -101.36)"/><path class="cls-8" d="M545.3,241.79l-26.47,28.14L501.9,270l-26.15,5.66s-10.4,3.8-10.07,17.32c.42,17.15,0,43.7,0,43.7l15.93-.37-1.45-47.07s47.29-7.1,57.94-10.51S551,263.55,551,263.55v-8.17l.57-.43C548.47,248.36,545.3,241.79,545.3,241.79Z" transform="translate(-78.41 -101.36)"/><path class="cls-13" d="M516.64,186.3S506,193,504.59,201.79s-4.14,19.08-4.14,19.08l1.63,1.2,3.91,8,5.63,4.32,3.36-2.9s4.38,18.75,4.74,26.86c0,0,22-3.06,28.46,0s9.37,9.91,9.37,9.91,1.29-10.81.43-18.47c-1.66-14.88-4.52-35.62-4.52-35.62S552,199,544.3,189.81c-4-4.78-11.81-6.75-11.81-6.75Z" transform="translate(-78.41 -101.36)"/><path class="cls-12" d="M552,220.87s-3.72-16.48-7.9-23.88-13.28-8.16-13.28-8.16L520.38,194l3.71-9.23-7.45,1.52S506,193,504.59,201.79s-4.14,19.08-4.14,19.08l1.63,1.2,3.91,8,5.63,4.32,3.36-2.9s4.38,18.75,4.74,26.86c0,0,22-3.06,28.46,0a16.77,16.77,0,0,1,3.18,2A97.93,97.93,0,0,0,548,239.68l-1.59-3.6,2.77-15.21Z" transform="translate(-78.41 -101.36)"/><path class="cls-15" d="M506,156s1.07,15.86,3.38,19.16,6.94,4,6.94,4a6,6,0,0,1,.33,7.18l2.19,8.81s11.18-7.76,13.66-12.05c0,0-1.64.68-2.22-3.2s-.42-13.88-.42-13.88a6.24,6.24,0,0,1-3.55,2.89,8.55,8.55,0,0,0,1.16-3.71,8.85,8.85,0,0,0,3.47-3.47c1-2.15.41-5.12-1.32-5.7s-2.89,2.56-2.89,2.56a10.17,10.17,0,0,1,.2-6.28s-14.33-.82-17.88-5.61A50.76,50.76,0,0,0,506,156Z" transform="translate(-78.41 -101.36)"/><path class="cls-15" d="M535.12,223l14.06-2.12,2.72,15.19s1,5.72-2.23,8.8-29.26,28.41-29.26,28.41-4.45,2.33-6.78,2.54-3.92,0-6.68,0-8.69,3.29-10.07,2.86-2.75-1.06-2.54-4.56,2.76-7.2,5.94-8.26,8.9-.64,14.2.74l24.91-28.2Z" transform="translate(-78.41 -101.36)"/><path class="cls-16" d="M542.56,221.87,535.12,223l4.27,15.4-24.91,28.2c-5.3-1.38-11-1.8-14.2-.74s-5.73,4.77-5.94,8.26,1.15,4.13,2.52,4.55c2-2.61,4.87-5.9,7.35-7.14,4.37-2.19,13-1.58,13-1.58l29.6-32.28Z" transform="translate(-78.41 -101.36)"/><path class="cls-15" d="M502.08,222.07l-1,6.78-17.06-22.47s-4-4-6.36-7-3.7-6.47-5-6c-2,.66-1.58,3,.65,7.06,0,0-6.21-2.59-7.62-6.1-1.36-3.36-5.51-3.41-6.15-.55s1,11.74,5.7,14.39,11.47,3.42,11.47,3.42l21.54,34.08c1.57,2.24,4.81,5.71,8.94,3.84,5.09-2.31,6.7-14.06,7.76-18Z" transform="translate(-78.41 -101.36)"/><path class="cls-19" d="M471.16,352.07l-19.46,9.51a4.66,4.66,0,0,0-1.67,3.2c-.12,2.05,2.3,2.05,5.24,2.3s27-.38,27.48-1.66-1.63-10.72-1.63-10.72Z" transform="translate(-78.41 -101.36)"/><path class="cls-20" d="M477.78,353.82h0l-6.62-1.75-19.46,9.51a4.66,4.66,0,0,0-1.67,3.2c-.1,1.59,1.36,2,3.4,2.14Z" transform="translate(-78.41 -101.36)"/><path class="cls-16" d="M526.68,178.6l1.74-2.53a13.88,13.88,0,0,1-6.58,1.74c-3.73,0-8.15-2.53-10.18-11.25-1.05-4.51-.49-11.71.29-17.64a8.34,8.34,0,0,1-2.91-2.26A50.76,50.76,0,0,0,506,156s1.07,15.86,3.38,19.16,6.94,4,6.94,4a6,6,0,0,1,.33,7.18l2.19,8.81s4.64-3.22,8.6-6.66C526,184.52,526.68,178.6,526.68,178.6Z" transform="translate(-78.41 -101.36)"/><path class="cls-16" d="M465.27,208.16c4.66,2.65,11.47,3.42,11.47,3.42l21.54,34.08a13,13,0,0,0,3,3.14,11.73,11.73,0,0,0,6.19-7c.83-2.49,2.08-7.49,3.42-13.28l-8.83-6.44-1,6.78-17.06-22.47s-4-4-6.36-7-3.7-6.47-5-6c-2,.66-1.58,3,.65,7.06,0,0-6.21-2.59-7.62-6.1-1.36-3.36-5.51-3.41-6.15-.55S460.61,205.51,465.27,208.16Z" transform="translate(-78.41 -101.36)"/><path class="cls-18" d="M495.47,162.6a.53.53,0,0,1-.27-.08l-16.84-11a21.85,21.85,0,0,1-5.39.7H441.66a21.71,21.71,0,0,1,0-43.41H473a21.69,21.69,0,0,1,14.28,38l8.65,15a.5.5,0,0,1-.08.61A.52.52,0,0,1,495.47,162.6Zm-17-12.12a.57.57,0,0,1,.28.08l15.26,10L486.18,147a.49.49,0,0,1,.11-.63A20.7,20.7,0,0,0,473,109.81H441.66a20.71,20.71,0,0,0,0,41.41H473a20.68,20.68,0,0,0,5.35-.72A.32.32,0,0,1,478.45,150.48Z" transform="translate(-78.41 -101.36)"/><path class="cls-18" d="M442.64,130.22a2.77,2.77,0,1,1-2.77-2.77A2.77,2.77,0,0,1,442.64,130.22ZM458,127.45a2.77,2.77,0,1,0,2.77,2.77A2.77,2.77,0,0,0,458,127.45Zm18.1,0a2.77,2.77,0,1,0,2.77,2.77A2.77,2.77,0,0,0,476.06,127.45Z" transform="translate(-78.41 -101.36)"/></svg>